{
    "asset" : {
        "generator" : "Khronos glTF Blender I/O v1.7.33",
        "version" : "2.0"
    },
    "scene" : 0,
    "scenes" : [
        {
            "name" : "tablet",
            "nodes" : [
                0
            ]
        }
    ],
    "nodes" : [
        {
            "mesh" : 0,
            "name" : "tablet",
            "rotation" : [
                1,
                0,
                0,
                -4.371138828673793e-08
            ],
            "scale" : [
                -2.387408494949341,
                -2.387408494949341,
                -2.387408494949341
            ],
            "translation" : [
                -0.09849990904331207,
                -0.07836508750915527,
                -0.08753304183483124
            ]
        }
    ],
    "animations" : [
        {
            "channels" : [
                {
                    "sampler" : 0,
                    "target" : {
                        "node" : 0,
                        "path" : "translation"
                    }
                },
                {
                    "sampler" : 1,
                    "target" : {
                        "node" : 0,
                        "path" : "rotation"
                    }
                },
                {
                    "sampler" : 2,
                    "target" : {
                        "node" : 0,
                        "path" : "scale"
                    }
                }
            ],
            "name" : "tabletAction",
            "samplers" : [
                {
                    "input" : 6,
                    "interpolation" : "STEP",
                    "output" : 7
                },
                {
                    "input" : 6,
                    "interpolation" : "STEP",
                    "output" : 8
                },
                {
                    "input" : 6,
                    "interpolation" : "STEP",
                    "output" : 9
                }
            ]
        }
    ],
    "meshes" : [
        {
            "extras" : {
                "targetNames" : [
                    "Key 1"
                ]
            },
            "name" : "tabletv",
            "primitives" : [
                {
                    "attributes" : {
                        "POSITION" : 0,
                        "NORMAL" : 1,
                        "TEXCOORD_0" : 2
                    },
                    "indices" : 3,
                    "targets" : [
                        {
                            "POSITION" : 4,
                            "NORMAL" : 5
                        }
                    ]
                }
            ],
            "weights" : [
                1
            ]
        }
    ],
    "accessors" : [
        {
            "bufferView" : 0,
            "componentType" : 5126,
            "count" : 3558,
            "max" : [
                0.9924819469451904,
                0.35861194133758545,
                1.0697039365768433
            ],
            "min" : [
                -1.0749980211257935,
                -0.3023291826248169,
                -0.9963942766189575
            ],
            "type" : "VEC3"
        },
        {
            "bufferView" : 1,
            "componentType" : 5126,
            "count" : 3558,
            "type" : "VEC3"
        },
        {
            "bufferView" : 2,
            "componentType" : 5126,
            "count" : 3558,
            "type" : "VEC2"
        },
        {
            "bufferView" : 3,
            "componentType" : 5123,
            "count" : 18048,
            "type" : "SCALAR"
        },
        {
            "bufferView" : 4,
            "componentType" : 5126,
            "count" : 3558,
            "max" : [
                0.34667229652404785,
                0.06599611043930054,
                0.13412624597549438
            ],
            "min" : [
                0,
                -0.055736295878887177,
                0
            ],
            "type" : "VEC3"
        },
        {
            "bufferView" : 5,
            "componentType" : 5126,
            "count" : 3558,
            "type" : "VEC3"
        },
        {
            "bufferView" : 6,
            "componentType" : 5126,
            "count" : 1,
            "max" : [
                0.041666666666666664
            ],
            "min" : [
                0.041666666666666664
            ],
            "type" : "SCALAR"
        },
        {
            "bufferView" : 7,
            "componentType" : 5126,
            "count" : 1,
            "type" : "VEC3"
        },
        {
            "bufferView" : 8,
            "componentType" : 5126,
            "count" : 1,
            "type" : "VEC4"
        },
        {
            "bufferView" : 9,
            "componentType" : 5126,
            "count" : 1,
            "type" : "VEC3"
        }
    ],
    "bufferViews" : [
        {
            "buffer" : 0,
            "byteLength" : 42696,
            "byteOffset" : 0
        },
        {
            "buffer" : 0,
            "byteLength" : 42696,
            "byteOffset" : 42696
        },
        {
            "buffer" : 0,
            "byteLength" : 28464,
            "byteOffset" : 85392
        },
        {
            "buffer" : 0,
            "byteLength" : 36096,
            "byteOffset" : 113856
        },
        {
            "buffer" : 0,
            "byteLength" : 42696,
            "byteOffset" : 149952
        },
        {
            "buffer" : 0,
            "byteLength" : 42696,
            "byteOffset" : 192648
        },
        {
            "buffer" : 0,
            "byteLength" : 4,
            "byteOffset" : 235344
        },
        {
            "buffer" : 0,
            "byteLength" : 12,
            "byteOffset" : 235348
        },
        {
            "buffer" : 0,
            "byteLength" : 16,
            "byteOffset" : 235360
        },
        {
            "buffer" : 0,
            "byteLength" : 12,
            "byteOffset" : 235376
        }
    ],
    "buffers" : [
        {
            "byteLength" : 235388,
            "uri" : "data:application/octet-stream;base64,"
        }
    ]
}
